<svg xmlns="http://www.w3.org/2000/svg" viewBox="0 0 155 155"><defs><style>.cls-1{fill:#f15249;}.cls-2{fill:#ad0e0e;}.cls-3{fill:#fff;}.cls-4{fill:#d6d6d6;}</style></defs><title>IconAsset 2</title><g id="Layer_2" data-name="Layer 2"><g id="Layer_1-2" data-name="Layer 1"><circle class="cls-1" cx="77.5" cy="77.5" r="77.5"/><path class="cls-2" d="M45 112.46l41.81 41.81a77.1 77.1 0 0 0 67.48-67l-42.07-42.04z"/><path class="cls-3" d="M114.17 94.61a9.15 9.15 0 0 1 0 12.71l-6.85 6.85a9.15 9.15 0 0 1-12.71 0L40.83 60.39a9.15 9.15 0 0 1 0-12.71l7.09-7.09a9.15 9.15 0 0 1 12.71 0z"/><path class="cls-4" d="M85.81 66L66 85.81l28.6 28.36a9.15 9.15 0 0 0 12.71 0l7.09-7.09a9.15 9.15 0 0 0 0-12.71z"/><path class="cls-3" d="M94.61 40.83a9.15 9.15 0 0 1 12.71 0l7.09 7.09a9.15 9.15 0 0 1 0 12.71l-54 53.54a9.15 9.15 0 0 1-12.71 0l-6.85-6.85a9.15 9.15 0 0 1 0-12.71z"/></g></g></svg>