<svg xmlns="http://www.w3.org/2000/svg" viewBox="0 0 144.36 172.63"><defs><style>.a{fill:#873834;}.a,.b,.c,.f{fill-rule:evenodd;}.b{fill:#a35450;}.c{fill:#c9928f;}.d,.f{fill:#76aa60;}.e{fill:#90c67b;}.g{fill:#ffd573;}.h{fill:#f2a900;}</style></defs><title>quiz-resultAsset 11</title><path class="a" d="M22.85,28.28h98.66a22.91,22.91,0,0,1,22.85,22.85v49.33H0V51.12A22.91,22.91,0,0,1,22.85,28.28Z"/><path class="a" d="M144.36,100.45v49.33a22.91,22.91,0,0,1-22.85,22.85H22.85A22.91,22.91,0,0,1,0,149.79V100.45Z"/><path class="b" d="M16.93,47h110.5A17,17,0,0,1,144.36,63.9v36.55H0V63.9A17,17,0,0,1,16.93,47Z"/><path class="c" d="M144.36,100.45V137a17,17,0,0,1-16.93,16.93H16.93A17,17,0,0,1,0,137V100.45Z"/><path class="a" d="M20.23,54h103.9A14.69,14.69,0,0,1,138.7,68.68v31.77H5.66V68.68A14.69,14.69,0,0,1,20.23,54Z"/><path class="b" d="M138.7,100.45v31.77a14.69,14.69,0,0,1-14.57,14.71H20.23A14.69,14.69,0,0,1,5.66,132.23V100.45Z"/><path class="a" d="M54.53,0H89.83a13.8,13.8,0,0,1,13.76,13.76V39.2H97.18v-18a9.89,9.89,0,0,0-9.86-9.86H57a9.89,9.89,0,0,0-9.86,9.86v18H40.76V13.76A13.8,13.8,0,0,1,54.53,0Z"/><path class="b" d="M54.53,6.11H89.83a13.8,13.8,0,0,1,13.76,13.76V39.2H94.18V24.68a9.89,9.89,0,0,0-9.86-9.86H60.17a9.89,9.89,0,0,0-9.86,9.86V39.2H40.76V19.87A13.8,13.8,0,0,1,54.53,6.11Z"/><rect class="d" x="55.89" y="83.43" width="77.03" height="36.15"/><rect class="e" x="60.37" y="87.8" width="68.07" height="27.42"/><path class="f" d="M68.9,87.8a8.53,8.53,0,0,1-8.53,8.53V87.8Z"/><path class="f" d="M119.92,87.8a8.53,8.53,0,0,0,8.53,8.53V87.8Z"/><path class="f" d="M68.9,115.92a8.53,8.53,0,0,0-8.53-8.53v8.53Z"/><path class="f" d="M119.92,115.92a8.53,8.53,0,0,1,8.53-8.53v8.53Z"/><circle class="d" cx="94.41" cy="101.51" r="10.04"/><rect class="d" x="55.89" y="75.33" width="77.03" height="8.11"/><rect class="e" x="55.89" y="83.04" width="77.03" height="0.78"/><rect class="e" x="55.89" y="80.96" width="77.03" height="0.78"/><rect class="e" x="55.89" y="78.87" width="77.03" height="0.78"/><rect class="e" x="55.89" y="76.79" width="77.03" height="0.78"/><rect class="g" x="90.84" y="75.33" width="7.13" height="44.26"/><rect class="h" x="90.84" y="75.33" width="7.13" height="8.11"/><rect class="d" x="13.34" y="103.03" width="77.03" height="36.15"/><rect class="e" x="17.82" y="107.4" width="68.07" height="27.42"/><path class="f" d="M26.35,107.4a8.53,8.53,0,0,1-8.53,8.53V107.4Z"/><path class="f" d="M77.36,107.4a8.53,8.53,0,0,0,8.53,8.53V107.4Z"/><path class="f" d="M26.35,135.52A8.53,8.53,0,0,0,17.82,127v8.53Z"/><path class="f" d="M77.36,135.52A8.53,8.53,0,0,1,85.89,127v8.53Z"/><circle class="d" cx="51.85" cy="121.11" r="10.04"/><rect class="d" x="13.34" y="94.93" width="77.03" height="8.11"/><rect class="e" x="13.34" y="102.64" width="77.03" height="0.78"/><rect class="e" x="13.34" y="100.56" width="77.03" height="0.78"/><rect class="e" x="13.34" y="98.47" width="77.03" height="0.78"/><rect class="e" x="13.34" y="96.39" width="77.03" height="0.78"/><rect class="g" x="48.29" y="94.93" width="7.13" height="44.26"/><rect class="h" x="48.29" y="94.93" width="7.13" height="8.11"/></svg>