<svg xmlns="http://www.w3.org/2000/svg" viewBox="0 0 205.24 124.55"><defs><style>.a,.c{fill:#76aa60;}.b{fill:#90c67b;}.c,.g{fill-rule:evenodd;}.d,.g{fill:#873834;}.e{fill:none;stroke:#c9928f;stroke-linecap:round;stroke-linejoin:round;stroke-width:2.71px;stroke-dasharray:2.71 8.13;}.f{fill:#c9928f;}</style></defs><title>quiz-resultAsset 10</title><rect class="a" x="33.93" y="27.06" width="140.1" height="65.75" transform="translate(-15.69 50.87) rotate(-25.63)"/><rect class="b" x="42.08" y="35.01" width="123.81" height="49.86" transform="translate(-15.69 50.87) rotate(-25.63)"/><path class="c" d="M51.37,57.52a15.51,15.51,0,0,1-7.28,20.69l-6.71-14Z"/><path class="c" d="M135,17.39a15.51,15.51,0,0,0,20.69,7.28l-6.71-14Z"/><path class="c" d="M73.49,103.63a15.51,15.51,0,0,0-20.69-7.28l6.71,14Z"/><path class="c" d="M157.15,63.5a15.51,15.51,0,0,1,7.28-20.69l6.71,14Z"/><circle class="a" cx="103.98" cy="59.94" r="18.26" transform="translate(-15.69 50.87) rotate(-25.63)"/><rect class="a" x="77.22" y="12.91" width="65.75" height="140.1" transform="translate(13.69 181.49) rotate(-82.62)"/><rect class="b" x="85.16" y="21.05" width="49.86" height="123.81" transform="translate(13.69 181.49) rotate(-82.62)"/><path class="c" d="M67.28,52.27A15.51,15.51,0,0,1,49.91,65.66l2-15.38Z"/><path class="c" d="M159.3,64.19a15.51,15.51,0,0,0,13.39,17.37l2-15.38Z"/><path class="c" d="M60.72,103A15.51,15.51,0,0,0,47.33,85.62l-2,15.38Z"/><path class="c" d="M152.74,114.9a15.51,15.51,0,0,1,17.37-13.39l-2,15.38Z"/><circle class="a" cx="110.09" cy="82.96" r="18.26" transform="matrix(0.13, -0.99, 0.99, 0.13, 13.69, 181.49)"/><rect class="a" x="59.69" y="37.9" width="140.1" height="65.75" transform="translate(-12.24 29.74) rotate(-12.49)"/><rect class="b" x="67.83" y="45.84" width="123.81" height="49.86" transform="translate(-12.24 29.74) rotate(-12.49)"/><path class="c" d="M79,56.47A15.51,15.51,0,0,1,67.26,75L63.91,59.82Z"/><path class="c" d="M169.64,36.4a15.51,15.51,0,0,0,18.5,11.79L184.78,33Z"/><path class="c" d="M90.11,106.4a15.51,15.51,0,0,0-18.5-11.79L75,109.75Z"/><path class="c" d="M180.7,86.33a15.51,15.51,0,0,1,11.79-18.5L195.85,83Z"/><circle class="a" cx="129.74" cy="70.78" r="18.26" transform="translate(-12.24 29.73) rotate(-12.49)"/><rect class="d" y="34.92" width="145.08" height="88.47" rx="12.38" ry="12.38"/><rect class="e" x="7.96" y="42.47" width="129.16" height="73.36" rx="7.96" ry="7.96"/><rect class="f" x="60.56" y="31.25" width="23.96" height="29.32" rx="3.35" ry="3.35"/><path class="g" d="M72.54,57.88a6.15,6.15,0,1,0-6.15-6.15A6.16,6.16,0,0,0,72.54,57.88Z"/></svg>