<svg xmlns="http://www.w3.org/2000/svg" xmlns:xlink="http://www.w3.org/1999/xlink" viewBox="0 0 119.05 192.71"><defs><style>.cls-1{isolation:isolate;}.cls-2{fill:#e9e5d9;}.cls-3{fill:#e6c190;}.cls-4{fill:#916b59;}.kulit-3{fill:url(#linear-gradient);}.cls-5{fill:#146c81;}.cls-6{fill:#115763;}.cls-7{fill:#fc8b60;}.cls-8{fill:#0b4c56;}.cls-9{fill:#fff;}.Pipi,.Pipi-2{mix-blend-mode:multiply;}.Pipi-2{fill:url(#radial-gradient);}.cls-10{fill:#bd8864;}.cls-11{fill:#3b4d57;}.cls-12{fill:#505c66;mix-blend-mode:screen;}.Pipi{fill:url(#radial-gradient-3);}</style><linearGradient id="linear-gradient" x1="37.03" y1="21.19" x2="37.03" y2="64.5" gradientUnits="userSpaceOnUse"><stop offset=".47" stop-color="#efd7b8"/><stop offset="1" stop-color="#e9c99f"/></linearGradient><radialGradient id="radial-gradient" cx="80.76" cy="-254.23" r="4.95" gradientTransform="rotate(90 -62.53 -90.86)" gradientUnits="userSpaceOnUse"><stop offset="0" stop-color="#fce7f0"/><stop offset=".8" stop-color="#fefafc"/><stop offset="1" stop-color="#fff"/></radialGradient><radialGradient id="radial-gradient-3" cx="50.68" cy="50.33" r="4.95" xlink:href="#radial-gradient"/></defs><title>IconAsset 4</title><g class="cls-1"><g id="Layer_2" data-name="Layer 2"><g id="Layer_1-2" data-name="Layer 1"><path id="_Path_" data-name="&lt;Path&gt;" class="cls-2" d="M69.46 30.38S74.22 33.7 72 39c0 0 6.2 9.61-4.49 12.1 0 0 1.49 6-3.75 6.53A7.12 7.12 0 0 1 56.6 54a23.19 23.19 0 0 0 3.59-9s3.61.52 3.61-3.54-3.45-3.6-3.45-3.6c-.09-.67-.21-1.32-.34-2 0 0-2.8-.55-3.74-2.47s.73-4.9.73-4.9-1 .19-4-1.44-3.22-5.92-3.22-5.92 0 4-4 4.19S40.25 24 40.25 24c-4 4-7.63.77-7.63.77s.93 3.37-1.79 4.9-6.18 0-6.18 0A13.16 13.16 0 0 1 14 35.93a19.45 19.45 0 0 0-.34 2s-3.47-.34-3.47 3.6S13.85 45 13.85 45a23.37 23.37 0 0 0 6.58 12.61s-7.4 4.1-10.2-4.47c0 0-6.58 1.41-5.2-6.28 0 0-5.79-.81-2.59-6.68 0 0-4.18-7.16 2.59-10.24 0 0-3-6.28 3.1-9 0 0-2.36-9.23 9-10.12 0 0 .64-9.1 11-7.18 0 0 11.6-9.24 18.64 1.41 0 0 10.44-2.82 10.44 8.2 0 0 7.51.51 6.51 7.56.08.08 7.8.85 5.74 9.57z"/><path id="_Path_2" data-name="&lt;Path&gt;" class="cls-3" d="M63.8 41.5c0 4.07-3.61 3.54-3.61 3.54a22.63 22.63 0 0 0 .36-4.04 24.62 24.62 0 0 0-.2-3.09s3.45-.35 3.45 3.59z"/><path id="_Path_3" data-name="&lt;Path&gt;" class="cls-4" d="M53.1 186.93a10.85 10.85 0 0 1 3.11 5.35A25.62 25.62 0 0 1 42.53 187l-.24 3.08-1.55-.08.71-9a30.12 30.12 0 0 0 7.71 6.83 2.67 2.67 0 0 0 3.94-.9z"/><path id="_Compound_Path_" data-name="&lt;Compound Path&gt;" class="kulit-3" d="M60.35 37.9a24.62 24.62 0 0 1 .2 3.09 22.63 22.63 0 0 1-.36 4.01 23.19 23.19 0 0 1-3.59 9 23.5 23.5 0 0 1-15.16 10 22.63 22.63 0 0 1-4.44.5 23.71 23.71 0 0 1-4.4-.41A23.54 23.54 0 0 1 13.85 45c0-.13 0-.27-.07-.4a24.51 24.51 0 0 1-.28-3.6 22.09 22.09 0 0 1 .2-3.09 19.45 19.45 0 0 1 .34-2 13.16 13.16 0 0 0 10.59-6.22s3.46 1.54 6.18 0 1.79-4.9 1.79-4.9 3.62 3.27 7.63-.77c0 0 1.6 1.54 5.55 1.35s4-4.19 4-4.19.22 4.29 3.22 5.93 4 1.44 4 1.44-1.67 3-.73 4.9S60 35.93 60 35.93c.14.65.26 1.31.35 1.97zM37 57.65c6.73 0 8.81-4.47 8.81-4.47A21.77 21.77 0 0 1 37 55.42a21.77 21.77 0 0 1-8.81-2.24s2.11 4.47 8.81 4.47zm0-7.76h3.22A3.58 3.58 0 0 0 37 47.37a3.59 3.59 0 0 0-3.23 2.53z"/><path id="_Path_4" data-name="&lt;Path&gt;" class="kulit-3" d="M56.26 122.41a5.63 5.63 0 0 1-.87 3.24 6.55 6.55 0 0 1-2.62 2.57c-.34-3.21-.76-6.86-1.22-10.65h4.5c.09 2.06.16 3.72.21 4.84z"/><path id="_Path_5" data-name="&lt;Path&gt;" class="cls-5" d="M56.05 117.57h-4.5c-.13-1-.25-2-.39-3.08 0 0-3 .72-7.07 1.23L43.34 75l-.12-6.57s8.18.06 10.09 12.93c1.34 9.15 2.3 26.76 2.74 36.21z"/><path id="_Path_6" data-name="&lt;Path&gt;" class="cls-3" d="M53.1 186.93a2.67 2.67 0 0 1-3.93.91 30.12 30.12 0 0 1-7.72-6.84l-.93-40.68a90.55 90.55 0 0 0 9.77-.48l-.6 44.43a16.53 16.53 0 0 1 3.41 2.66z"/><path id="_Path_7" data-name="&lt;Path&gt;" class="cls-6" d="M52.77 128.22c.76 7.07 1.17 12.08 1.17 12.08s-1.1.25-2.89.58a90.56 90.56 0 0 1-9.7 1.25c-1.42.1-2.88.16-4.34.16s-2.92-.05-4.34-.16a90.38 90.38 0 0 1-9.67-1.24c-1.8-.33-2.89-.58-2.89-.58s1-12.48 2.78-25.82c0 0 3 .72 7.07 1.23a58.21 58.21 0 0 0 7.07.48 58.33 58.33 0 0 0 7.07-.48c4-.51 7.07-1.23 7.07-1.23.13 1 .26 2.06.39 3.08.44 3.8.87 7.43 1.21 10.65z"/><path id="_Path_8" data-name="&lt;Path&gt;" class="cls-7" d="M45.84 53.18s-2.09 4.47-8.84 4.47-8.81-4.47-8.81-4.47A21.77 21.77 0 0 0 37 55.42a21.77 21.77 0 0 0 8.84-2.24z"/><path id="_Path_9" data-name="&lt;Path&gt;" class="cls-7" d="M43.34 75l.76 40.69a58.33 58.33 0 0 1-7.07.48 58.21 58.21 0 0 1-7.07-.48L30.7 75a8 8 0 0 0 6.3 2.64A8 8 0 0 0 43.34 75z"/><path id="_Path_10" data-name="&lt;Path&gt;" class="cls-3" d="M43.34 75A8 8 0 0 1 37 77.64 8 8 0 0 1 30.7 75l.13-6.57 1.79-1V64.1a23.71 23.71 0 0 0 4.4.41 22.63 22.63 0 0 0 4.41-.43v3.35l1.79 1z"/><path id="_Path_11" data-name="&lt;Path&gt;" class="cls-3" d="M40.25 49.89h-6.46A3.59 3.59 0 0 1 37 47.37a3.58 3.58 0 0 1 3.25 2.52z"/><path id="_Path_12" data-name="&lt;Path&gt;" class="cls-3" d="M32.69 142.14l-4.12 40.48a30.3 30.3 0 0 1-8.22 6.21 2.69 2.69 0 0 1-3.87-1.21 16.83 16.83 0 0 1 3.63-2.39L23 140.89a90.38 90.38 0 0 0 9.69 1.25z"/><path id="_Path_13" data-name="&lt;Path&gt;" class="cls-5" d="M30.83 68.45L30.7 75l-.7 40.72c-4-.51-7.07-1.23-7.07-1.23a211.85 211.85 0 0 1 4.2-24.06 9.7 9.7 0 0 1-1.72-3.75s-5 15.16-9 15.16C11.12 101.85 7 95.33 5 78.48h.24a15 15 0 0 0 6.27-.64 3 3 0 0 0 .49-.23 36.22 36.22 0 0 1 3.16 10.51s4-11.1 8.37-15.27c4.21-3.91 7.3-4.4 7.3-4.4z"/><path id="_Path_14" data-name="&lt;Path&gt;" class="cls-4" d="M28.57 182.63v9H27v-3.09a25.63 25.63 0 0 1-14 4.17 10.85 10.85 0 0 1 3.52-5.08 2.69 2.69 0 0 0 3.87 1.21 30.3 30.3 0 0 0 8.18-6.21z"/><path id="_Path_15" data-name="&lt;Path&gt;" class="kulit-3" d="M16.07 70.15c1.35 1.38-4.21 7.39-4.52 7.72a15 15 0 0 1-6.27.64S1.94 73.68.72 72.74s-.67-1.85 0-2.24 2.87 2.71 3.1 2.36-.82-1.73-1.76-3.54-.51-2 .36-2.55 3 4.4 3.45 4.36-.28-1.53-.87-3.8.31-3.18 1.26-3.27 2.2 6.53 2.55 6.53 0-1.8-.19-3.89.23-2.95 1.37-2.55 1.61 8.68 2.2 8.64 2.43-4.12 3.88-2.64z"/><path id="_Path_16" data-name="&lt;Path&gt;" class="cls-3" d="M13.85 45s-3.61.52-3.61-3.54 3.47-3.6 3.47-3.6A22.09 22.09 0 0 0 13.5 41a24.51 24.51 0 0 0 .28 3.65c.03.12.04.26.07.35z"/><g id="_Group_" data-name="&lt;Group&gt;"><path id="_Path_17" data-name="&lt;Path&gt;" class="cls-5" d="M71.72 87.63c-1.26 1.91-15 23.76-3.57 39.46l-5.82 3.69-1.52 1-3.65-2.94s-5.26-5.93-3.54-23.54C56 80.46 73 70.12 73.42 69.84a22.51 22.51 0 0 0 3.24 1.69l3.22 8.23 6.27-5.25 6.28 5.25 3.22-8.23a22 22 0 0 0 3.24-1.69s17.35 10.28 19.81 35.43c1.71 17.61-3.54 23.54-3.54 23.54l-3.65 2.94-1.52-1-5.82-3.69c11.39-15.7-2.32-37.55-3.57-39.46 4.13 7.28 10.87 28 3.55 39.45a15.26 15.26 0 0 1-1.59 2.08c-3.28 3.65-8.5 5.94-16.41 5.84-7.9.1-13.12-2.18-16.4-5.83a14.8 14.8 0 0 1-1.59-2.09c-7.31-11.45-.57-32.13 3.56-39.42z"/><path id="_Path_18" data-name="&lt;Path&gt;" class="cls-4" d="M111.66 192.71H89.25l11.69-6.91a11.31 11.31 0 0 1 10.72 6.91z"/><path id="_Path_19" data-name="&lt;Path&gt;" class="kulit-3" d="M110 130.79l-3.71 4.21-3.72-5.84a15.26 15.26 0 0 0 1.59-2.08z"/><path id="_Path_20" data-name="&lt;Path&gt;" class="cls-6" d="M106.29 135l1 1.62-6.36 49.17-11.69 6.91-3.1-52.87-3.09 52.87-11.67-6.9L65 136.63l1-1.63 3.72-5.83c3.27 3.65 8.5 5.94 16.4 5.83 7.91.1 13.13-2.19 16.41-5.84z"/><path id="_Path_21" data-name="&lt;Path&gt;" class="cls-8" d="M100.6 87.63c1.26 1.91 15 23.76 3.57 39.46 7.3-11.49.57-32.17-3.57-39.46z"/><path id="_Path_22" data-name="&lt;Path&gt;" class="cls-8" d="M95.66 71.53l-3.22 8.23-6.28-5.25-6.27 5.25-3.22-8.23a23.52 23.52 0 0 0 19 0z"/><path id="_Path_23" data-name="&lt;Path&gt;" class="cls-4" d="M83.07 192.71H60.66a11.31 11.31 0 0 1 10.71-6.91z"/><path id="_Path_24" data-name="&lt;Path&gt;" class="kulit-3" d="M69.76 129.17L66 135l-3.72-4.22 5.82-3.69a14.8 14.8 0 0 0 1.66 2.08z"/><path id="_Path_25" data-name="&lt;Path&gt;" class="cls-8" d="M68.17 127.09c-11.39-15.7 2.32-37.55 3.57-39.46-4.15 7.29-10.89 27.97-3.57 39.46z"/><g id="_Group_2" data-name="&lt;Group&gt;"><path id="_Path_26" data-name="&lt;Path&gt;" class="cls-3" d="M112.53 39.74s4.62.34 3.48 6.67a5.7 5.7 0 0 1-4.73 4.74 113.12 113.12 0 0 0 1.23-11.42z"/><path id="_Path_27" data-name="&lt;Path&gt;" class="cls-2" d="M112.51 39.74a113.12 113.12 0 0 1-1.23 11.42l-.09.62c-1.81 11.43-7.27 17.17-12.72 20a22 22 0 0 1-3.35 1.45 23.52 23.52 0 0 1-18.95-1.39A22.51 22.51 0 0 1 73.06 70c-5-3.63-9.54-10.12-9.65-21.68v-.62c0-4.17.11-8 .44-11.47.73-7.49 2.38-13.37 5.3-17.62L68 52.57a3.63 3.63 0 0 0 .3 1.58c1 2.35 4.41 9 10.3 9.46a12.47 12.47 0 0 0 5.66-.85 4.67 4.67 0 0 1 4.1.3 12.4 12.4 0 0 0 5.46 1.67c5.9.43 10.24-5.68 11.57-7.85a3.53 3.53 0 0 0 .53-1.52l3.87-33.8c2.32 4.61 3.09 10.68 2.72 18.18z"/><path id="_Compound_Path_2" data-name="&lt;Compound Path&gt;" class="kulit-3" d="M109.84 21.54L106 55.35a3.53 3.53 0 0 1-.53 1.52c-1.34 2.17-5.68 8.29-11.57 7.85a12.4 12.4 0 0 1-5.46-1.67 4.67 4.67 0 0 0-4.1-.3 12.47 12.47 0 0 1-5.66.85c-5.88-.43-9.29-7.11-10.3-9.46a3.63 3.63 0 0 1-.3-1.58l1.12-34c4.13-6 10.8-8.67 21-7.92s16.43 4.36 19.64 10.9zm-23 34.51l9.27.68c-3.27-3.79-9-3.89-9-3.89s-5.71-.75-9.5 2.53zm5.07.51l-5.08-.37-5.07-.37s1.74 3 4.86 3.25 5.3-2.51 5.3-2.51zm-4.6-6.87l3.24.24s0-2.34-3.07-2.56-3.4 2.09-3.4 2.09z"/><path id="_Path_28" data-name="&lt;Path&gt;" class="cls-9" d="M97.32 43.7a2.81 2.81 0 0 1-.3-.42 2.81 2.81 0 0 0 .3.42z"/><path id="_Path_29" data-name="&lt;Path&gt;" class="cls-2" d="M96.12 56.73l-9.27-.68-9.26-.68c3.79-3.28 9.5-2.53 9.5-2.53s5.76.1 9.03 3.89z"/><path id="_Path_30" data-name="&lt;Path&gt;" class="cls-7" d="M86.84 56.19l5.08.37s-2.16 2.73-5.29 2.51-4.86-3.25-4.86-3.25z"/><path id="_Path_31" data-name="&lt;Path&gt;" class="cls-3" d="M90.56 49.92l-3.24-.24-3.23-.24s.34-2.31 3.4-2.09 3.07 2.57 3.07 2.57z"/><g id="_Group_3" data-name="&lt;Group&gt;"><circle id="_Path_32" data-name="&lt;Path&gt;" class="Pipi-2" cx="100.84" cy="52.43" r="4.95" transform="rotate(-85.8 100.843 52.428)"/><circle id="_Path_33" data-name="&lt;Path&gt;" class="Pipi-2" cx="73.56" cy="50.43" r="4.95" transform="rotate(-85.8 73.56 50.43)"/></g><path id="_Path_34" data-name="&lt;Path&gt;" class="cls-3" d="M63.84 36.17c-.33 3.48-.47 7.3-.44 11.47a5.71 5.71 0 0 1-4-5.38c-.19-6.43 4.44-6.09 4.44-6.09z"/><g id="_Group_4" data-name="&lt;Group&gt;"><path id="_Path_35" data-name="&lt;Path&gt;" class="cls-10" d="M80.21 34.23a18.34 18.34 0 0 0-9.33-.69c-.13 0-.31-.45-.19-.51a8.93 8.93 0 0 1 5-1.21 8.37 8.37 0 0 1 4.78 1.91c.13.09-.13.53-.26.5z"/></g><g id="_Group_5" data-name="&lt;Group&gt;"><path id="_Path_36" data-name="&lt;Path&gt;" class="cls-10" d="M96.43 34.93a8.43 8.43 0 0 1 5-1.22 8.59 8.59 0 0 1 4.77 1.95c.1.08-.14.52-.26.48a17.64 17.64 0 0 0-9.31-.67c-.14.01-.32-.47-.2-.54z"/></g><g id="_Group_6" data-name="&lt;Group&gt;"><g id="_Group_7" data-name="&lt;Group&gt;"><path id="_Path_37" data-name="&lt;Path&gt;" class="cls-11" d="M97.31 39.06a2.2 2.2 0 1 1-2.36 2 2.19 2.19 0 0 1 2.36-2z"/><path id="_Path_38" data-name="&lt;Path&gt;" class="cls-11" d="M79 37.72a2.2 2.2 0 1 1-2.36 2 2.2 2.2 0 0 1 2.36-2z"/></g><circle id="_Path_39" data-name="&lt;Path&gt;" class="cls-12" cx="97.81" cy="40.48" r=".75" transform="rotate(-85.81 97.81 40.48)"/><circle id="_Path_40" data-name="&lt;Path&gt;" class="cls-12" cx="79.5" cy="39.14" r=".75" transform="rotate(-85.8 79.504 39.136)"/></g></g></g><g id="_Group_8" data-name="&lt;Group&gt;"><path id="_Path_41" data-name="&lt;Path&gt;" class="cls-10" d="M29.46 36.11a11.72 11.72 0 0 0-4.35-.8 15.5 15.5 0 0 0-4.41.81c-.12 0-.37-.4-.26-.48a7.91 7.91 0 0 1 4.65-1.79 6.59 6.59 0 0 1 4.67 1.78c.11.09-.18.52-.3.48z"/></g><g id="_Group_9" data-name="&lt;Group&gt;"><path id="_Path_42" data-name="&lt;Path&gt;" class="cls-10" d="M44.3 35.65a6.61 6.61 0 0 1 4.7-1.81 7.62 7.62 0 0 1 4.64 1.81c.1.08-.14.52-.26.48a14.14 14.14 0 0 0-4.4-.83 11.9 11.9 0 0 0-4.33.83c-.18.04-.45-.39-.35-.48z"/></g><g id="_Group_10" data-name="&lt;Group&gt;"><path id="_Path_43" data-name="&lt;Path&gt;" class="cls-8" d="M48.74 87a10.57 10.57 0 0 1-.61 1.86 9.44 9.44 0 0 1-.43.89l-.25.43-.21.32.37 1.34.39 1.45q.36 1.47.67 3c.41 2 .77 4 1.1 6 .64 4 1.14 8 1.52 12 0 .36-.21.4-.27 0-.63-4-1.28-8-2-11.92-.34-2-.7-4-1.07-5.93l-.59-3L47 92l-.37-1.59c.21-.25.27-.34.36-.47l.26-.39c.17-.27.32-.54.46-.82a10.83 10.83 0 0 0 .7-1.76c.16-.42.41-.34.33.03z"/></g><g id="_Group_11" data-name="&lt;Group&gt;"><g id="_Group_12" data-name="&lt;Group&gt;"><path id="_Path_44" data-name="&lt;Path&gt;" class="cls-11" d="M46.2 39.07a2.2 2.2 0 1 1-2.2 2.19 2.19 2.19 0 0 1 2.2-2.19z"/><path id="_Path_45" data-name="&lt;Path&gt;" class="cls-11" d="M27.85 39.07a2.2 2.2 0 1 1-2.21 2.19 2.2 2.2 0 0 1 2.21-2.19z"/></g><circle id="_Path_46" data-name="&lt;Path&gt;" class="cls-12" cx="46.81" cy="40.44" r=".75"/><circle id="_Path_47" data-name="&lt;Path&gt;" class="cls-12" cx="28.44" cy="40.44" r=".75"/></g><g id="_Group_13" data-name="&lt;Group&gt;"><circle id="_Path_48" data-name="&lt;Path&gt;" class="Pipi" cx="50.68" cy="50.33" r="4.95"/><circle id="_Path_49" data-name="&lt;Path&gt;" class="Pipi" cx="23.33" cy="50.33" r="4.95"/></g></g></g></g></svg>