<svg xmlns="http://www.w3.org/2000/svg" viewBox="0 0 177.32 207.6"><defs><style>.cls-1{fill:none;}.cls-2{fill:#1d1d1b;}.cls-3{isolation:isolate;}.cls-4{fill:#ffc99c;}.cls-5{fill:#ba9197;}.cls-6{mix-blend-mode:screen;fill:url(#_10_ppp_20_);}.cls-7{fill:#433934;}.cls-8{fill:#e09000;}.cls-9{fill:#af6617;}</style><pattern id="_10_ppp_20_" data-name="10 ppp 20%" width="28.8" height="28.8" patternTransform="translate(72.83 -11.21)" patternUnits="userSpaceOnUse" viewBox="0 0 28.8 28.8"><path class="cls-1" d="M0 0h28.8v28.8H0z"/><circle class="cls-2" cx="28.8" cy="28.8" r="1.44"/><circle class="cls-2" cx="14.4" cy="28.8" r="1.44"/><circle class="cls-2" cy="28.8" r="1.44"/><circle class="cls-2" cx="28.8" cy="14.4" r="1.44"/><circle class="cls-2" cx="14.4" cy="14.4" r="1.44"/><circle class="cls-2" cy="14.4" r="1.44"/><circle class="cls-2" cx="28.8" r="1.44"/><circle class="cls-2" cx="14.4" r="1.44"/><circle class="cls-2" r="1.44"/><circle class="cls-2" cx="-14.4" r="1.44"/><circle class="cls-2" cx="7.2" cy="21.6" r="1.44"/><circle class="cls-2" cx="21.6" cy="21.6" r="1.44"/><circle class="cls-2" cx="7.2" cy="7.2" r="1.44"/><circle class="cls-2" cx="21.6" cy="7.2" r="1.44"/><circle class="cls-2" cx="-7.2" cy="7.2" r="1.44"/></pattern></defs><title>IconAsset 5</title><g class="cls-3"><g id="Layer_2" data-name="Layer 2"><g id="Layer_1-2" data-name="Layer 1"><path class="cls-4" d="M166.5 94.68c0-16.27-6.5-25.47-21.5-28V61.6h-16v5.11c-15 2.49-21.46 11.7-21.46 28l-9.59 45.21 10.66 2.65 10.29-49.82c0-12.62 5-11.42 17.23-11.35v.16c12.79 0 19.1-1.7 19.1 11.18l10.31 49.82 10.59-2.65z"/><path class="cls-4" d="M138 202.47l9.3-.64 4.39-61.19-14.5.33c1.03 18.27.89 55.5.81 61.5zM134.81 201.84c-.08-6-.41-42.59.62-60.86l-14.5-.33 4.39 61.19zM164 36.92c0 15.34-14 27.79-27.06 27.79s-27.06-12.44-27.06-27.79S122 9.13 136.94 9.13 164 21.57 164 36.92zM105.95 145a4.67 4.67 0 0 1-5.67 3.39 4.67 4.67 0 0 1-3.39-5.67l1.52-6a4.67 4.67 0 0 1 5.67-3.39 4.67 4.67 0 0 1 3.39 5.67zM168.12 145a4.67 4.67 0 0 0 5.67 3.39 4.67 4.67 0 0 0 3.39-5.67l-1.52-6a4.67 4.67 0 0 0-5.66-3.39 4.67 4.67 0 0 0-3.39 5.67z"/><path class="cls-5" d="M155.24 100.71l13.07-.31a168.5 168.5 0 0 0-3.08-18.33c-2.89-11.76-15.49-14.38-15.49-14.38s-2.09 11-12.71 11.18c-10.62-.2-12.71-11.18-12.71-11.18s-12.6 2.63-15.49 14.38a168.46 168.46 0 0 0-3.08 18.31l13.07.33v17c-8.2 15.46-12.67 36.3-12.67 36.3s.9 6.43 30.93 6.43S168 154 168 154s-4.53-21.12-12.84-36.62z"/><path class="cls-6" d="M155.24 100.71l13.07-.31a168.5 168.5 0 0 0-3.08-18.33c-2.89-11.76-15.49-14.38-15.49-14.38s-2.09 11-12.71 11.18c-10.62-.2-12.71-11.18-12.71-11.18s-12.6 2.63-15.49 14.38a168.46 168.46 0 0 0-3.08 18.31l13.07.33v17c-8.2 15.46-12.67 36.3-12.67 36.3s.9 6.43 30.93 6.43S168 154 168 154s-4.53-21.12-12.84-36.62z"/><path class="cls-7" d="M135 201.6v6h-17c-2.37 0-.66-1.67 1.88-2.88 4.73-2.26 5.43-2.88 5.43-2.88zM138 201.6v6h17.25c2.37 0 .66-1.67-1.88-2.88a46.74 46.74 0 0 1-5.56-2.88z"/><path class="cls-8" d="M159.67 17.25c-5.67-7.31-13.49-9.65-22-9.65h-1.34c-8.51 0-16 1.53-22 9.65-8.28 11.19-6.67 34.31-2 39.65s8.59 5.62 8.59 5.62c-9.42-16.42-2-33.42-2-33.42s9.4.5 18.06.5 15.42.13 18.06-.5c0 0 7.08 14.48-2 33.42 0 0 3.92-.29 8.59-5.62s6.57-28.65-1.96-39.65z"/><path class="cls-4" d="M64.9 33.81c0 15.34-14 27.78-27.06 27.78S10.79 49.15 10.79 33.81 22.9 6 37.84 6 64.9 18.46 64.9 33.81z"/><path class="cls-4" d="M30 59.6h16v8H30z"/><path class="cls-4" d="M37.8 65.6h-.26C17.32 65.6 6.37 75.74 6.37 96L0 141.84v6a5 5 0 0 0 10 0v-3.24h2.26l3.22-26.95 1.35-23.58c0-13.57 7.17-14.13 20.74-14.13l.18.61c13.57 0 20.74-.38 20.74 13.19l4.58 50.86H65v3.28a5 5 0 0 0 10 0v-2.19l-.18-3.54-7-46.08C67.79 75.86 58 65.6 37.8 65.6z"/><path class="cls-7" d="M18.96 121.6l2.73 79.66 8.31-.09 7.4-61.03L45 201.6h8.13l3.29-80H18.96z"/><path class="cls-8" d="M37.8 76.86S29.71 66 29.49 66.08C17.13 68 9.56 75.7 7.26 87.72c-.5 2.6-7 51.88-7 51.88h12.89l5.39-40.94.16 32.56 37.69.5.95-32.09 5.23 40H75s-6.8-52.13-7.92-55.68c-3-9.52-10-16-20.71-17.83z"/><path class="cls-7" d="M30 200.6v7H11.11c-2.6 0-.72-2 2.06-3.37a43.17 43.17 0 0 1 9.08-3.23zM45 201.17v6.43h19.71c2.7 0 .75-1.69-2.15-3.08a37 37 0 0 0-9.35-3.18z"/><path class="cls-9" d="M52.65 46.49c-5.17.32-9.36-5.17-14.53-5.17s-9.36 5.49-14.53 5.17-9.78-7-12.8-11.75l.16.61c0 8.72 5.61 19.13 11.83 23.33s9.52 4.92 15.34 4.92 9.12-.73 15.34-4.92 11.82-14.62 11.82-23.33l.16-.61c-3.02 4.72-7.63 11.42-12.79 11.75zM38 52c-3 0-10-4.84 0-4.84 11-.03 4 4.84 0 4.84z"/><path class="cls-9" d="M10.79 32.6s10.88-12 12.55-17.33c0 0 27.18 5.67 33.09 3 0 0 7.48 13.16 8.86 17.08 0 0 1.05-15-5.62-22.41a11.32 11.32 0 0 0 2-7.33s-8 2.67-13.68-2-20.85-5.87-25.67 3A25.26 25.26 0 0 0 10.79 32.6z"/></g></g></g></svg>