<svg xmlns="http://www.w3.org/2000/svg" viewBox="0 0 157 157"><defs><style>.cls-1{fill:#f15249;}.cls-2{fill:#ad0e0e;}.cls-3{fill:#fff;}.cls-4{fill:#d6d6d6;}.cls-5{fill:#32ba7c;}.cls-6{fill:#0aa06e;}</style></defs><title>IconAsset 1</title><g id="Layer_2" data-name="Layer 2"><g id="Layer_1-2" data-name="Layer 1"><circle class="cls-1" cx="78.7" cy="79.5" r="77.5"/><path class="cls-2" d="M46.18 114.46L88 156.27a77.1 77.1 0 0 0 67.48-67l-42.06-42.04z"/><path class="cls-3" d="M115.37 96.61a9.15 9.15 0 0 1 0 12.71l-6.85 6.85a9.15 9.15 0 0 1-12.71 0L42 62.39a9.15 9.15 0 0 1 0-12.71l7.09-7.09a9.15 9.15 0 0 1 12.71 0z"/><path class="cls-4" d="M87 68L67.2 87.8l28.6 28.36a9.15 9.15 0 0 0 12.71 0l7.09-7.09a9.15 9.15 0 0 0 0-12.71z"/><path class="cls-3" d="M95.81 42.83a9.15 9.15 0 0 1 12.71 0l7.09 7.09a9.15 9.15 0 0 1 0 12.71l-54 53.54a9.15 9.15 0 0 1-12.71 0l-6.9-6.84a9.15 9.15 0 0 1 0-12.71z"/><circle class="cls-5" cx="78.5" cy="78.5" r="78.5"/><path class="cls-6" d="M58.44 113.91l40.36 40.36A78.45 78.45 0 0 0 157 78.5v-2.23l-31.7-29.22z"/><path class="cls-3" d="M80.48 96.08a9.27 9.27 0 0 1 0 12.88l-7.18 7.18a9.27 9.27 0 0 1-12.88 0L29 84.44a9.27 9.27 0 0 1 0-12.88l7.18-7.18a9.27 9.27 0 0 1 12.88 0z"/><path class="cls-3" d="M108 41.35a9.27 9.27 0 0 1 12.88 0l7.12 7.19a9.27 9.27 0 0 1 0 12.88l-54.45 54.23a9.27 9.27 0 0 1-12.88 0l-7.18-7.18a9.27 9.27 0 0 1 0-12.88z"/></g></g></svg>