<svg xmlns="http://www.w3.org/2000/svg" viewBox="0 0 311.07 249.88"><defs><style>.cls-1,.cls-2{fill:#873834;}.cls-13,.cls-2,.cls-3,.cls-7,.cls-8,.cls-9{fill-rule:evenodd;}.cls-3{fill:#c9928f;}.cls-4,.cls-9{fill:#b2daed;}.cls-5,.cls-8{fill:#7ab2cc;}.cls-6{fill:#68a2bd;}.cls-10,.cls-7{fill:#fff;}.cls-11,.cls-13{fill:#76aa60;}.cls-12{fill:#90c67b;}.cls-14{fill:#ffd573;}.cls-15{fill:#f2a900;}</style></defs><title>IconAsset 9</title><g id="Layer_2" data-name="Layer 2"><g id="Layer_1-2" data-name="Layer 1"><path class="cls-1" d="M14.17 151.93h148.84v13.47H14.17z"/><path class="cls-1" d="M82.21 90.37h12.76v61.57H82.21zM77.96 79.03h21.26v11.34H77.96zM14.17 65.56h148.84v13.47H14.17zM129.7 90.37h12.76v61.57H129.7zM125.45 79.03h21.26v11.34h-21.26zM34.73 90.37h12.76v61.57H34.73zM30.48 79.03h21.26v11.34H30.48z"/><path class="cls-2" d="M0 65.56h177.19L88.59 0 0 65.56z"/><path class="cls-3" d="M30.48 56.41h116.23L88.59 13.4 30.48 56.41z"/><path class="cls-1" d="M90.68 42.38a2.88 2.88 0 0 0-.61-2 6.13 6.13 0 0 0-2.16-1.37 19 19 0 0 1-5.5-3 5.78 5.78 0 0 1-1.72-4.53A5.9 5.9 0 0 1 82.52 27a7.85 7.85 0 0 1 4.86-2v-3.38h2.54v3.44a7.1 7.1 0 0 1 4.56 2.36 7.18 7.18 0 0 1 1.63 5v.08h-5.32a4.18 4.18 0 0 0-.67-2.6 2.16 2.16 0 0 0-1.79-.9 2 2 0 0 0-1.68.7 2.85 2.85 0 0 0-.54 1.79 2.65 2.65 0 0 0 .58 1.79 6.13 6.13 0 0 0 2.18 1.39 19.91 19.91 0 0 1 5.45 3.16 5.76 5.76 0 0 1 1.74 4.5 6 6 0 0 1-1.75 4.48 7.66 7.66 0 0 1-4.71 2V52h-2.54v-3.19a8.66 8.66 0 0 1-5.15-2.17 6.83 6.83 0 0 1-2-5.46v-.1h5.26a3.93 3.93 0 0 0 .87 2.85 3 3 0 0 0 2.24.87 2.2 2.2 0 0 0 1.74-.67 2.57 2.57 0 0 0 .66-1.75z"/><rect class="cls-4" x="193.2" y="23.77" width="117.87" height="117.87" rx="17.64" ry="17.64"/><rect class="cls-5" x="199.04" y="29.61" width="106.19" height="106.19" rx="14.19" ry="14.19"/><path class="cls-6" d="M252.14 28.08H291a15.75 15.75 0 0 1 15.71 15.71v77.82A15.75 15.75 0 0 1 291 137.32h-38.86v-3H291a12.71 12.71 0 0 0 12.67-12.67V43.79A12.71 12.71 0 0 0 291 31.13h-38.86zm-38.91 0h38.91v3h-38.91a12.71 12.71 0 0 0-12.67 12.67v77.82a12.71 12.71 0 0 0 12.67 12.67h38.91v3h-38.91a15.75 15.75 0 0 1-15.71-15.71V43.79a15.75 15.75 0 0 1 15.71-15.71z"/><path class="cls-6" d="M266.62 61.38a26.29 26.29 0 0 1 0 47v-6a21.2 21.2 0 0 0 3.13-2.58 21 21 0 0 0 6-12.26h-9.13v-5.27h9.13a21 21 0 0 0-6-12.26 21.2 21.2 0 0 0-3.13-2.58zm-11.75-2.77a26.17 26.17 0 0 1 11.75 2.77v6a20.92 20.92 0 0 0-9.13-3.38v18.27h9.13v5.23h-9.13v18.26a20.92 20.92 0 0 0 9.13-3.42v6a26.32 26.32 0 0 1-23.49 0v-6a20.92 20.92 0 0 0 9.13 3.42V87.5h-9.13v-5.23h9.13V64a20.92 20.92 0 0 0-9.13 3.42v-6a26.16 26.16 0 0 1 11.75-2.8zm-11.75 49.77a26.29 26.29 0 0 1 0-47v6A21.07 21.07 0 0 0 234 82.27h9.13v5.23H234a21.07 21.07 0 0 0 9.13 14.84z"/><path class="cls-4" d="M263.88 59.2a26.28 26.28 0 0 1 0 47v-6A21.06 21.06 0 0 0 273 85.32h-9.13v-5.23H273a21.06 21.06 0 0 0-9.13-14.84zm-11.75-2.77a26.17 26.17 0 0 1 11.75 2.77v6a20.93 20.93 0 0 0-9.13-3.42v18.31h9.13v5.23h-9.13v18.26a20.93 20.93 0 0 0 9.13-3.42v6a26.32 26.32 0 0 1-23.49 0v-6a20.92 20.92 0 0 0 9.13 3.42V85.32h-9.13v-5.23h9.13V61.82a20.92 20.92 0 0 0-9.13 3.42v-6a26.16 26.16 0 0 1 11.75-2.81zm-11.74 49.77a26.28 26.28 0 0 1 0-47v6a21.07 21.07 0 0 0-9.13 14.84h9.13v5.23h-9.13a21.07 21.07 0 0 0 9.13 14.84z"/><path class="cls-7" d="M264 104.66a25 25 0 0 0 0-43.92v3a22.39 22.39 0 0 1 10.36 16.21l.18 1.49H264V84h10.55l-.18 1.49a22.39 22.39 0 0 1-10.37 16.2zm-11.83-46.9a24.88 24.88 0 0 0-11.83 3v3a22.26 22.26 0 0 1 9.06-3.21l1.49-.18v21.1H240.3V84h10.55v21.1l-1.49-.18a22.26 22.26 0 0 1-9.06-3.21v3a25 25 0 0 0 23.67 0v-3a22.26 22.26 0 0 1-9.06 3.21l-1.49.18V84H264v-2.58h-10.58v-21.1l1.49.18a22.26 22.26 0 0 1 9.09 3.22v-3a24.88 24.88 0 0 0-11.86-2.96zm-11.83 3a25 25 0 0 0 0 43.92v-3a22.4 22.4 0 0 1-10.36-16.21l-.23-1.47h10.55v-2.58h-10.55l.18-1.49a22.4 22.4 0 0 1 10.37-16.21z"/><path class="cls-8" d="M191 46.56h14.14v18.07H191a2.71 2.71 0 0 1-2.7-2.7V49.27a2.71 2.71 0 0 1 2.7-2.71zM191 100.77h14.14v18.07H191a2.71 2.71 0 0 1-2.7-2.7v-12.67a2.71 2.71 0 0 1 2.7-2.7z"/><path class="cls-9" d="M192.29 48.59h11v14h-11a2.1 2.1 0 0 1-2.1-2.1v-9.8a2.1 2.1 0 0 1 2.1-2.1zM192.29 102.8h11v14h-11a2.1 2.1 0 0 1-2.1-2.1v-9.8a2.1 2.1 0 0 1 2.1-2.1zM271.78 60.92a12.58 12.58 0 1 0-12.58-12.58 12.61 12.61 0 0 0 12.58 12.58z"/><path class="cls-10" d="M271.35 37.37a.43.43 0 1 1 .86 0V59.3a.43.43 0 0 1-.86 0z"/><path class="cls-10" d="M275.13 37.89a.43.43 0 0 1 .8.29l-7.5 20.61a.43.43 0 0 1-.8-.29z"/><path class="cls-10" d="M275.94 58.5a.43.43 0 1 1-.8.29l-7.5-20.61a.43.43 0 0 1 .8-.29z"/><path class="cls-10" d="M278.51 39.66a.43.43 0 1 1 .65.55L265.06 57a.43.43 0 0 1-.66-.55z"/><path class="cls-10" d="M281.07 42.49a.43.43 0 1 1 .43.74l-19 11a.43.43 0 0 1-.43-.74z"/><path class="cls-10" d="M282.51 46a.43.43 0 1 1 .15.84l-21.6 3.81a.43.43 0 0 1-.15-.84z"/><path class="cls-10" d="M282.66 49.82a.43.43 0 1 1-.15.84l-21.6-3.81a.43.43 0 0 1 .15-.84z"/><path class="cls-10" d="M281.49 53.45a.43.43 0 1 1-.43.74l-19-11a.43.43 0 1 1 .43-.74z"/><path class="cls-10" d="M279.16 56.46a.43.43 0 0 1-.65.55l-14.1-16.8a.43.43 0 0 1 .66-.55z"/><path class="cls-8" d="M271.78 57.09a8.75 8.75 0 1 0-8.78-8.75 8.77 8.77 0 0 0 8.78 8.75z"/><path class="cls-10" d="M275.13 37.89a.43.43 0 0 1 .8.29l-3.75 10.3a.43.43 0 1 1-.8-.29z"/><path class="cls-7" d="M271.78 54.35a6 6 0 1 0-6-6 6 6 0 0 0 6 6z"/><path class="cls-11" d="M184.35 183.32h94.72v44.45h-94.72z"/><path class="cls-12" d="M189.86 188.69h83.7v33.71h-83.7z"/><path class="cls-13" d="M200.35 188.69a10.49 10.49 0 0 1-10.49 10.49v-10.49zM263.08 188.69a10.49 10.49 0 0 0 10.49 10.49v-10.49zM200.35 223.27a10.49 10.49 0 0 0-10.49-10.49v10.49zM263.08 223.27a10.49 10.49 0 0 1 10.49-10.49v10.49z"/><circle class="cls-11" cx="231.71" cy="205.55" r="12.35"/><path class="cls-11" d="M184.35 173.35h94.72v9.97h-94.72z"/><path class="cls-12" d="M184.35 182.84h94.72v.95h-94.72zM184.35 180.28h94.72v.95h-94.72zM184.35 177.72h94.72v.95h-94.72zM184.35 175.15h94.72v.95h-94.72z"/><path class="cls-14" d="M227.33 173.35h8.77v54.42h-8.77z"/><path class="cls-15" d="M227.33 173.35h8.77v9.97h-8.77z"/><path class="cls-11" d="M111.02 205.42h94.72v44.45h-94.72z"/><path class="cls-12" d="M116.53 210.79h83.71v33.71h-83.71z"/><path class="cls-13" d="M127 210.79a10.49 10.49 0 0 1-10.49 10.49v-10.49zM189.75 210.79a10.49 10.49 0 0 0 10.49 10.49v-10.49zM127 245.37a10.49 10.49 0 0 0-10.49-10.49v10.49zM189.75 245.37a10.49 10.49 0 0 1 10.49-10.49v10.49z"/><circle class="cls-11" cx="158.38" cy="227.65" r="12.35"/><path class="cls-11" d="M111.02 195.46h94.72v9.97h-94.72z"/><path class="cls-12" d="M111.02 204.95h94.72v.95h-94.72zM111.02 202.38h94.72v.95h-94.72zM111.02 199.82h94.72v.95h-94.72zM111.02 197.25h94.72v.95h-94.72z"/><path class="cls-14" d="M154 195.46h8.77v54.42H154z"/><path class="cls-15" d="M154 195.46h8.77v9.97H154z"/></g></g></svg>