<svg xmlns="http://www.w3.org/2000/svg" viewBox="0 0 75 207.6"><defs><style>.cls-1{fill:#ffc99c;}.cls-2{fill:#433934;}.cls-3{fill:#e09000;}.cls-4{fill:#af6617;}</style></defs><title>IconAsset 6</title><g id="Layer_2" data-name="Layer 2"><g id="Layer_1-2" data-name="Layer 1"><path class="cls-1" d="M64.9 33.81c0 15.34-14 27.78-27.06 27.78S10.79 49.15 10.79 33.81 22.9 6 37.84 6 64.9 18.46 64.9 33.81z"/><path class="cls-1" d="M30 59.6h16v8H30z"/><path class="cls-1" d="M37.8 65.6h-.26C17.32 65.6 6.37 75.74 6.37 96L0 141.84v6a5 5 0 0 0 10 0v-3.24h2.26l3.22-26.95 1.35-23.58c0-13.57 7.17-14.13 20.74-14.13l.18.61c13.57 0 20.74-.38 20.74 13.19l4.58 50.86H65v3.28a5 5 0 0 0 10 0v-2.19l-.18-3.54-7-46.08C67.79 75.86 58 65.6 37.8 65.6z"/><path class="cls-2" d="M18.96 121.6l2.73 79.66 8.31-.09 7.4-61.03L45 201.6h8.13l3.29-80H18.96z"/><path class="cls-3" d="M37.8 76.86S29.71 66 29.49 66.08C17.13 68 9.56 75.7 7.26 87.72c-.5 2.6-7 51.88-7 51.88h12.89l5.39-40.94.16 32.56 37.69.5.95-32.09 5.23 40H75s-6.8-52.13-7.92-55.68c-3-9.52-10-16-20.71-17.83z"/><path class="cls-2" d="M30 200.6v7H11.11c-2.6 0-.72-2 2.06-3.37a43.17 43.17 0 0 1 9.08-3.23zM45 201.17v6.43h19.71c2.7 0 .75-1.69-2.15-3.08a37 37 0 0 0-9.35-3.18z"/><path class="cls-4" d="M52.65 46.49c-5.17.32-9.36-5.17-14.53-5.17s-9.36 5.49-14.53 5.17-9.78-7-12.8-11.75l.16.61c0 8.72 5.61 19.13 11.83 23.33s9.52 4.92 15.34 4.92 9.12-.73 15.34-4.92 11.82-14.62 11.82-23.33l.16-.61c-3.02 4.72-7.63 11.42-12.79 11.75zM38 52c-3 0-10-4.84 0-4.84 11-.03 4 4.84 0 4.84z"/><path class="cls-4" d="M10.79 32.6s10.88-12 12.55-17.33c0 0 27.18 5.67 33.09 3 0 0 7.48 13.16 8.86 17.08 0 0 1.05-15-5.62-22.41a11.32 11.32 0 0 0 2-7.33s-8 2.67-13.68-2-20.85-5.87-25.67 3A25.26 25.26 0 0 0 10.79 32.6z"/></g></g></svg>