<svg xmlns="http://www.w3.org/2000/svg" viewBox="0 0 235 242.16"><defs><style>.cls-1{fill:none;}.cls-2{fill:#1d1d1b;}.cls-3{isolation:isolate;}.cls-4{fill:#ffc99c;}.cls-5{fill:#e09000;}.cls-6{mix-blend-mode:screen;fill:url(#_10_ppp_20_);}.cls-7{fill:#8c7257;}.cls-8{fill:#af6617;}.cls-9{fill:#f48065;}.cls-10{fill:#433934;}.cls-11{fill:#6e4315;}</style><pattern id="_10_ppp_20_" data-name="10 ppp 20%" width="28.8" height="28.8" patternTransform="matrix(1.17 0 0 1.17 18.77 -32.02)" patternUnits="userSpaceOnUse" viewBox="0 0 28.8 28.8"><path class="cls-1" d="M0 0h28.8v28.8H0z"/><circle class="cls-2" cx="28.8" cy="28.8" r="1.44"/><circle class="cls-2" cx="14.4" cy="28.8" r="1.44"/><circle class="cls-2" cy="28.8" r="1.44"/><circle class="cls-2" cx="28.8" cy="14.4" r="1.44"/><circle class="cls-2" cx="14.4" cy="14.4" r="1.44"/><circle class="cls-2" cy="14.4" r="1.44"/><circle class="cls-2" cx="28.8" r="1.44"/><circle class="cls-2" cx="14.4" r="1.44"/><circle class="cls-2" r="1.44"/><circle class="cls-2" cx="-14.4" r="1.44"/><circle class="cls-2" cx="7.2" cy="21.6" r="1.44"/><circle class="cls-2" cx="21.6" cy="21.6" r="1.44"/><circle class="cls-2" cx="7.2" cy="7.2" r="1.44"/><circle class="cls-2" cx="21.6" cy="7.2" r="1.44"/><circle class="cls-2" cx="-7.2" cy="7.2" r="1.44"/></pattern></defs><title>IconAsset 8</title><g class="cls-3"><g id="Layer_2" data-name="Layer 2"><g id="Layer_1-2" data-name="Layer 1"><path class="cls-4" d="M159.22 110.44c0-19-7.58-29.71-25.08-32.62v-6h-18.66v6c-17.5 2.91-25 13.64-25 32.62l-11.22 52.73 12.43 3.09 12-58.11c0-14.73 5.83-13.32 20.1-13.23v.19c14.93 0 22.28-2 22.28 13l12 58.11 12.35-3.09z"/><path class="cls-4" d="M126 236.19l10.85-.74 5.15-71.38-16.92.39c1.16 21.3.99 64.73.92 71.73zM122.26 235.45c-.09-7-.47-49.69.72-71l-16.92-.39 5.12 71.38zM156.3 43.06c0 17.9-16.36 32.41-31.56 32.41S93.18 61 93.18 43.06s14.13-32.41 31.56-32.41 31.56 14.51 31.56 32.41zM88.59 169.11a5.45 5.45 0 0 1-6.61 4 5.45 5.45 0 0 1-4-6.61l1.77-7a5.44 5.44 0 0 1 6.61-4 5.45 5.45 0 0 1 4 6.61zM161.12 169.11a5.44 5.44 0 0 0 6.61 4 5.45 5.45 0 0 0 4-6.61l-1.77-7a5.45 5.45 0 0 0-6.61-4 5.44 5.44 0 0 0-4 6.61z"/><path class="cls-5" d="M146.1 117.48l15.25-.36a196.59 196.59 0 0 0-3.6-21.39C154.38 82 139.68 79 139.68 79s-2.44 12.81-14.83 13C112.47 91.77 110 79 110 79s-14.67 3-18 16.74a196.44 196.44 0 0 0-3.6 21.36l15.25.38v19.81c-9.56 18-14.78 42.34-14.78 42.34s1 7.5 36.08 7.5 36.08-7.5 36.08-7.5-5.29-24.64-15-42.71z"/><path class="cls-6" d="M146.1 117.48l15.25-.36a196.59 196.59 0 0 0-3.6-21.39C154.38 82 139.68 79 139.68 79s-2.44 12.81-14.83 13C112.47 91.77 110 79 110 79s-14.67 3-18 16.74a196.44 196.44 0 0 0-3.6 21.36l15.25.38v19.81c-9.56 18-14.78 42.34-14.78 42.34s1 7.5 36.08 7.5 36.08-7.5 36.08-7.5-5.29-24.64-15-42.71z"/><path class="cls-7" d="M122.48 235.17v7h-19.83c-2.76 0-.77-1.94 2.2-3.36 5.52-2.64 6.34-3.36 6.34-3.36zM126 235.17v7h20.1c2.76 0 .77-1.94-2.2-3.36a54.63 54.63 0 0 1-6.48-3.36z"/><path class="cls-8" d="M151.26 20.12c-6.61-8.53-15.73-11.25-25.66-11.25H124c-9.93 0-18.66 1.79-25.66 11.25-9.66 13.06-7.78 40-2.34 46.25s10 6.56 10 6.56c-11-19.15-2.31-39-2.31-39s11 .58 21.07.58 18 .16 21.07-.58c0 0 8.26 16.89-2.31 39 0 0 4.57-.34 10-6.56s7.69-33.37-2.26-46.25z"/><path class="cls-4" d="M75.71 39.43c0 17.9-16.36 32.41-31.56 32.41S12.58 57.33 12.58 39.43 26.71 7 44.15 7s31.56 14.53 31.56 32.43z"/><path class="cls-4" d="M35 69.52h18.66v9.33H35z"/><path class="cls-4" d="M44.09 76.52h-.31c-23.58 0-36.36 11.83-36.36 35.41L0 165.46v7a5.83 5.83 0 0 0 11.67 0v-3.82h2.63l3.76-31.43 1.58-27.51c0-15.83 8.36-16.48 24.2-16.48L44 94c15.83 0 24.2-.44 24.2 15.39l5.34 59.33h2.24v3.82a5.83 5.83 0 0 0 11.67 0v-2.56l-.21-4.12-8.2-53.75c.04-23.62-11.37-35.59-34.95-35.59z"/><path class="cls-8" d="M22.12 141.85l3.18 92.92 9.69-.1 8.64-71.2 8.86 71.7h9.48l3.85-93.32h-43.7z"/><path class="cls-9" d="M44.09 89.65S34.66 77 34.4 77.08C20 79.37 11.15 88.31 8.47 102.32c-.58 3-8.13 60.52-8.13 60.52h15l6.29-47.75.19 38 44 .58 1.1-37.43 6.08 46.6h14.46s-7.93-60.81-9.24-65C74.7 86.78 66.53 79.24 54.06 77.1z"/><path class="cls-10" d="M35 234v8.17H13c-3 0-.84-2.38 2.41-3.93A50.37 50.37 0 0 1 26 234.43zM52.49 234.67v7.5h23c3.16 0 .88-2-2.51-3.59a43.22 43.22 0 0 0-10.91-3.71zM61.41 54.23c-6 .38-10.92-6-16.95-6s-10.92 6.4-16.95 6S16.11 46 12.58 40.52l.19.71c0 10.17 6.54 22.32 13.8 27.21s11.11 5.74 17.89 5.74 10.64-.85 17.89-5.74 13.8-17 13.8-27.21l.19-.71c-3.53 5.48-8.9 13.33-14.93 13.71zm-17.08 6.4c-3.5 0-11.67-5.65 0-5.65 12.83.02 4.67 5.65 0 5.65z"/><path class="cls-10" d="M12.58 38s12.69-14 14.64-20.19c0 0 31.7 6.61 38.6 3.5 0 0 8.72 15.35 10.34 19.92 0 0 1.23-17.53-6.55-26.15a13.21 13.21 0 0 0 2.34-8.55S62.6 9.64 56 4.2 31.67-2.65 26.05 7.7A29.47 29.47 0 0 0 12.58 38z"/><path class="cls-4" d="M228.68 77.72c0 16.1-14.71 29.15-28.39 29.15S171.9 93.82 171.9 77.72s12.71-29.15 28.39-29.15 28.39 13.05 28.39 29.15z"/><path class="cls-4" d="M192.47 103.35h14v8.17h-14z"/><path class="cls-4" d="M200.26 109.18H200c-18.89 0-27.6 9.89-29.36 28.52l-5.45 41.79-.73 4.83v2a4.67 4.67 0 0 0 9.33 0v-3.69h2.59l3-24.86 1.27-21.88c0-12.68 6.7-13.12 19.38-13.12l.17.61c12.68 0 19.38-.65 19.38 12l4.28 47.23h1.25v3.69a4.67 4.67 0 0 0 9.33 0v-2l.1-3.3-6.43-43.2c.03-18.88-8.96-28.62-27.85-28.62z"/><path class="cls-11" d="M182.66 161.68l2.55 74.49 7.76-.04 6.92-57.13 7.1 57.33h7.59l3.08-74.65h-35z"/><path class="cls-7" d="M200.26 120s-7.56-10.1-7.76-10.07c-11.54 1.83-18.62 8.68-20.77 19.91-.46 2.43-6.51 48.16-6.51 48.16h12l5-37.94.15 30.58 35.22.54.89-30.25 4.93 37.07H235s-6.35-48.39-7.4-51.71c-2.82-8.9-9.36-14.79-19.35-16.5z"/><path class="cls-10" d="M193.13 235.86l.31 6.31h-18.12c-2.43 0-.67-1.9 1.93-3.15a41.64 41.64 0 0 1 8.25-3.02zM207 236.34l-.44 5.82h18.89c2.53 0 .7-1.58-2-2.88a34.46 34.46 0 0 0-9-3z"/><path class="cls-8" d="M172.82 84.64s5.86-17.74 9.84-22.41c0 0 17.25 17.5 26.07 20.12l.66-3.39s4.08 5.44 9.33 6l1.75-2.92 5.83 7.87s8.17-9.33 1.75-24.2-27.12-25.66-43.74-14.29l-3.21-2.33-.29 4.37s-15.39 13.92-7.99 31.18z"/></g></g></g></svg>